<svg xmlns="http://www.w3.org/2000/svg" viewBox="0 0 512 512"><defs><radialGradient id="bg"><stop stop-color="#073b6f"/><stop offset=".45" stop-color="#03162b"/><stop offset="1" stop-color="#01050b"/></radialGradient><linearGradient id="metal" x1="0" x2="1"><stop stop-color="#eefaff"/><stop offset=".28" stop-color="#7c9fb8"/><stop offset=".52" stop-color="#fff"/><stop offset=".78" stop-color="#7794aa"/><stop offset="1" stop-color="#dff8ff"/></linearGradient><filter id="glow"><feGaussianBlur stdDeviation="7" result="b"/><feMerge><feMergeNode in="b"/><feMergeNode in="SourceGraphic"/></feMerge></filter></defs><rect width="512" height="512" rx="96" fill="url(#bg)"/><rect x="16" y="16" width="480" height="480" rx="82" fill="none" stroke="#8feaff" stroke-width="7"/><circle cx="256" cy="250" r="190" fill="none" stroke="#0ac8ff" stroke-width="10" opacity=".75" filter="url(#glow)"/><path d="M256 38l18 34 38 7-28 27 7 38-35-18-35 18 7-38-28-27 38-7z" fill="url(#metal)" stroke="#35dfff" stroke-width="4"/><path d="M119 310h48l18-38h142l18 38h48" fill="none" stroke="url(#metal)" stroke-width="24" stroke-linecap="round"/><g fill="url(#metal)" stroke="#0ac8ff" stroke-width="3"><rect x="86" y="282" width="22" height="57" rx="4"/><rect x="112" y="273" width="17" height="75" rx="4"/><rect x="383" y="273" width="17" height="75" rx="4"/><rect x="404" y="282" width="22" height="57" rx="4"/></g><text x="256" y="220" text-anchor="middle" fill="#eafaff" font-family="Arial Black,Arial" font-size="43" font-weight="900">THE</text><text x="256" y="283" text-anchor="middle" fill="url(#metal)" stroke="#d9f8ff" stroke-width="1" font-family="Arial Black,Arial" font-size="68" font-weight="900">SYSTEM</text><text x="256" y="342" text-anchor="middle" fill="#20d9ff" font-family="Arial, sans-serif" font-size="23" font-weight="700" letter-spacing="5">WORKOUT TRACKER</text><path d="M256 374l15 29-15 55-15-55z" fill="#e9fdff" stroke="#18d8ff" stroke-width="5" filter="url(#glow)"/></svg>